<?xml version="1.0" encoding="utf-8"?>
<!-- Generator: Adobe Illustrator 24.1.1, SVG Export Plug-In . SVG Version: 6.00 Build 0)  -->
<svg version="1.1" id="Layer_1" xmlns="http://www.w3.org/2000/svg" xmlns:xlink="http://www.w3.org/1999/xlink" x="0px" y="0px"
	 viewBox="0 0 400 400" style="enable-background:new 0 0 400 400;" xml:space="preserve">
<g id="react-svg-orbital">
	<path style="fill:#61DAFB;" d="M396.5,198.5c0-26-32.6-50.7-82.6-66c11.5-50.9,6.4-91.5-16.2-104.4c-5.2-3-11.3-4.5-17.9-4.5v17.9
		c3.7,0,6.6,0.7,9.1,2.1c10.9,6.3,15.6,30,11.9,60.6c-0.9,7.5-2.3,15.5-4.1,23.6c-15.7-3.8-32.8-6.8-50.9-8.7
		c-10.8-14.8-22-28.3-33.3-40c26.1-24.3,50.6-37.6,67.3-37.6v-18l0,0c-22,0-50.9,15.7-80,42.9c-29.1-27.1-58-42.6-80-42.6v17.9
		c16.6,0,41.2,13.2,67.3,37.3c-11.2,11.8-22.4,25.2-33.1,40c-18.1,1.9-35.2,4.9-50.9,8.8c-1.8-8-3.2-15.8-4.2-23.2
		c-3.8-30.6,0.9-54.4,11.7-60.7c2.4-1.4,5.5-2.1,9.2-2.1V23.9l0,0c-6.7,0-12.8,1.4-18.1,4.5c-22.5,13-27.6,53.4-15.9,104.2
		c-49.8,15.4-82.2,40-82.2,65.9c0,26,32.6,50.7,82.6,66c-11.5,50.9-6.4,91.5,16.2,104.4c5.2,3,11.3,4.5,18,4.5
		c22,0,50.9-15.7,80-42.9c29.1,27.1,58,42.6,80,42.6c6.7,0,12.8-1.4,18.1-4.5c22.5-13,27.5-53.4,15.9-104.2
		C364.1,249.1,396.5,224.4,396.5,198.5z M292.2,145.1c-3,10.3-6.6,21-10.8,31.6c-3.3-6.4-6.7-12.8-10.5-19.2
		c-3.7-6.4-7.6-12.6-11.5-18.7C270.8,140.4,281.7,142.5,292.2,145.1z M255.6,230.4c-6.3,10.8-12.6,21.1-19.3,30.6
		c-11.9,1-24,1.6-36.2,1.6c-12.1,0-24.2-0.6-36-1.5c-6.6-9.5-13.1-19.7-19.4-30.4c-6.1-10.5-11.6-21.1-16.7-31.9
		c5-10.7,10.6-21.5,16.6-31.9c6.3-10.8,12.6-21.1,19.3-30.6c11.9-1,24-1.6,36.2-1.6c12.1,0,24.2,0.6,36,1.5
		c6.6,9.5,13.1,19.7,19.4,30.4c6.1,10.5,11.6,21.1,16.7,31.9C267.1,209.1,261.6,219.9,255.6,230.4z M281.4,219.9
		c4.3,10.7,8,21.5,11,31.9c-10.5,2.6-21.5,4.7-33,6.4c3.9-6.2,7.9-12.5,11.5-19C274.7,232.8,278.1,226.3,281.4,219.9z M200.1,305.4
		c-7.4-7.7-14.9-16.3-22.3-25.6c7.2,0.3,14.6,0.6,22,0.6c7.5,0,15-0.2,22.3-0.6C214.9,289.1,207.6,297.7,200.1,305.4z M140.6,258.2
		c-11.4-1.7-22.3-3.8-32.8-6.3c3-10.3,6.7-21,10.8-31.6c3.3,6.4,6.7,12.8,10.5,19.2C132.8,245.9,136.6,252.1,140.6,258.2z
		 M199.8,91.6c7.4,7.7,14.9,16.3,22.3,25.6c-7.2-0.3-14.6-0.6-22-0.6c-7.5,0-15,0.2-22.3,0.6C184.9,107.8,192.3,99.3,199.8,91.6z
		 M140.6,138.7c-3.9,6.2-7.9,12.5-11.5,19c-3.7,6.4-7.1,12.8-10.4,19.2c-4.3-10.7-8-21.5-11.1-31.9
		C117.9,142.6,129.1,140.4,140.6,138.7z M68.1,239c-28.3-12.1-46.7-27.9-46.7-40.5S39.6,170,68.1,158c6.9-3,14.4-5.6,22.2-8.1
		c4.6,15.7,10.6,32,18,48.8c-7.4,16.7-13.3,32.9-17.8,48.5C82.6,244.7,74.9,242,68.1,239z M111.1,353.4c-10.9-6.3-15.6-30-11.9-60.6
		c0.9-7.5,2.3-15.5,4.1-23.5c15.7,3.8,32.8,6.8,50.8,8.7c10.8,14.8,22,28.3,33.3,40c-26.1,24.3-50.6,37.6-67.3,37.6
		C116.6,355.5,113.6,354.8,111.1,353.4z M301.1,292.4c3.8,30.6-0.9,54.4-11.7,60.7c-2.4,1.4-5.5,2.1-9.2,2.1
		c-16.6,0-41.2-13.2-67.3-37.3c11.2-11.8,22.4-25.1,33.1-40c18.1-1.9,35.2-4.9,50.9-8.8C298.8,277.2,300.2,285,301.1,292.4z
		 M332,239c-6.9,3-14.4,5.6-22.2,8.1c-4.6-15.7-10.6-32-18-48.8c7.4-16.7,13.3-32.9,17.8-48.5c7.9,2.5,15.5,5.2,22.5,8.2
		c28.4,12.1,46.7,27.9,46.7,40.5C378.6,211,360.3,227,332,239z"/>
	<circle style="fill:#61DAFB;" cx="199.9" cy="198.5" r="36.6"/>
</g>
<path d="M163.8,366.7c6.6,0,15.2-6,16.6-13.1c2.3-11.8-12.2-13.4-19.9-16.5c-13.6-5.4-24-18.3-20.6-35.9c4.2-21.8,24-39.3,44.3-39.3
	c18.5,0,31,14.7,29.7,33.9l-25.1,5.5c1.4-7-3-13-9.6-13c-6.7,0-13.4,6-14.7,13.1c-2.2,11.6,10.8,14.7,18.7,17.4
	c14.3,4.7,25.2,17.1,21.7,35.1c-4.2,21.8-25.9,39.3-46,39.3c-18.6,0-32.6-14.6-31.6-33.9l25.1-5.5
	C151,360.9,157.1,366.8,163.8,366.7L163.8,366.7z"/>
<path d="M246,366.7c6.6,0,15.2-6,16.6-13.1c2.3-11.8-12.2-13.4-19.9-16.5c-13.6-5.4-24-18.3-20.6-35.9c4.2-21.8,24-39.3,44.3-39.3
	c18.5,0,31,14.7,29.7,33.9l-25.1,5.5c1.4-7-3-13-9.6-13c-6.7,0-13.4,6-14.7,13.1c-2.2,11.6,10.8,14.7,18.7,17.4
	c14.3,4.7,25.2,17.1,21.7,35.1c-4.2,21.8-25.9,39.3-46,39.3c-18.6,0-32.6-14.6-31.6-33.9l25.1-5.5
	C233.2,360.9,239.3,366.8,246,366.7L246,366.7z"/>
<path d="M314.8,263H354c13.4,0,23.1,5.5,28.8,13.1c5.8,7.9,8.7,15,5.9,29.3l-0.6,3.4c-1.7,8.7-5.9,16.9-12.4,24.6
	c-5.5,6.3-9.3,9-16.7,11.9l18.8,46.8h-29.5L325.1,335L314,392.1h-24.1L314.8,263z M363.8,306.2c0.9-4.7,0.2-8.8-2.3-12.4
	c-2.5-3.3-8-5.1-13.9-5.1H334l-6.9,35.6h9.3v0.1h8C353.2,324.4,361.8,316.1,363.8,306.2z"/>
</svg>
